<svg width="16" height="20" viewBox="0 0 16 20" fill="none" xmlns="http://www.w3.org/2000/svg">
<path fill-rule="evenodd" clip-rule="evenodd" d="M0.611877 7.38809C0.611877 3.31421 3.92609 0 7.99997 0C12.0738 0 15.3881 3.31421 15.3881 7.38809C15.3881 8.72968 14.787 10.1721 14.7618 10.2325C14.5675 10.6936 14.1847 11.4098 13.9078 11.8296L8.84178 19.5054C8.63448 19.8196 8.32765 20 7.99997 20C7.67229 20 7.36546 19.8196 7.15816 19.505L2.09254 11.8296C1.81614 11.4098 1.43282 10.6936 1.23856 10.2325L1.23804 10.2312C1.20604 10.1541 0.611877 8.72107 0.611877 7.38809ZM13.1821 11.3512C13.4302 10.9748 13.787 10.3086 13.9604 9.89526C13.9661 9.88223 14.5189 8.55106 14.5189 7.38809C14.5189 3.79357 11.5945 0.869187 7.99997 0.869187C4.40545 0.869187 1.48106 3.79357 1.48106 7.38809C1.48106 8.54721 2.03056 9.87218 2.03991 9.89472L2.03995 9.89483C2.21335 10.3081 2.57016 10.9748 2.81831 11.3512L7.88437 19.0269C7.98432 19.1786 8.01605 19.1786 8.11601 19.0269L13.1821 11.3512ZM4.08862 7.38852C4.08862 5.23206 5.84308 3.47717 7.99997 3.47717C10.1569 3.47717 11.9113 5.23206 11.9113 7.38852C11.9113 9.54497 10.1569 11.2999 7.99997 11.2999C5.84308 11.2999 4.08862 9.54497 4.08862 7.38852ZM4.95781 7.38852C4.95781 9.06605 6.32287 10.4307 7.99997 10.4307C9.67707 10.4307 11.0421 9.06605 11.0421 7.38852C11.0421 5.71099 9.67707 4.34636 7.99997 4.34636C6.32287 4.34636 4.95781 5.71099 4.95781 7.38852Z" fill="#048782"/>
</svg>
